Grown Ups (2010)1080p DTS X264




Verenigde Staten

Komedie

102 minuten

geregisseerd door Dennis Dugan
met Adam Sandler, Kevin James en Chris Rock

Vijf goede vrienden en teammaten hebben elkaar sinds hun middelbare school niet meer gezien. Om hun overleden basketbalcoach te herdenken besluiten ze, 35 jaar later tijdens het '4th of July' weekend, allemaal nog eens bij elkaar te komen. Ze ontdekken al snel dat ze allemaal erg veranderd zijn in die 35 jaar

English

After their high school basketball coach passes away, five good friends and former teammates reunite for a Fourth of July holiday weekend. 




Gestreamd Voor PS3 + Popcorn + Mediabox




===================================================

-------- Source: Grown.Ups.2010.BluRay.1080p.DTS.x264-CHD
-------- Video Format: X264 / Mkv
-------- Video Info: 1920 x 1040 23.98 Fps
-------- Geluidinfo: DTS 6ch 48 Khz 1.54 Mbps
-------- Subs: Dutch
-------- Bestandgrote: 9.66 Gb
-------- Speelduur: 102 Minutes
Thanks  : R-knorloading 
===================================================
Spotinformatie 
Categorie : Beeld 
Formaat : x264HD 
Bron : Retail
 
Ondertitels : Nederlands (instelbaar)

Format                           : Matroska
File size                        : 9.66 GiB
Duration                         : 1h 42mn
Overall bit rate                 : 13.5 Mbps
Encoded date                     : UTC 2010-10-19 18:16:26
Writing application              : mkvmerge v3.0.0 ('Hang up your Hang-Ups') built on Dec 12 2009 15:20:35
Writing library                  : libebml v0.7.9 + libmatroska v0.8.1

Video
ID                               : 1
Format                           : AVC
Format/Info                      : Advanced Video Codec
Format profile                   : High@L4.1
Format settings, CABAC           : Yes
Format settings, ReFrames        : 4 frames
Muxing mode                      : Container profile=Unknown@4.1
Codec ID                         : V_MPEG4/ISO/AVC
Duration                         : 1h 42mn
Bit rate                         : 12.0 Mbps
Width                            : 1 920 pixels
Height                           : 1 040 pixels
Display aspect ratio             : 16:9
Frame rate                       : 23.976 fps
Color space                      : YUV
Chroma subsampling               : 4:2:0
Bit depth                        : 8 bits
Scan type                        : Progressive
Bits/(Pixel*Frame)               : 0.251
Stream size                      : 8.39 GiB (87%)
Title                            : Grown.Ups.2010
Writing library                  : x264 core 102 r1666 d058f37
Encoding settings                : cabac=1 / ref=4 / deblock=1:-3:-3 / analyse=0x3:0x113 / me=umh / subme=9 / psy=1 / psy_rd=1.10:0.15 / mixed_ref=1 / me_range=32 / chroma_me=1 / trellis=2 / 8x8dct=1 / cqm=2 / deadzone=21,11 / fast_pskip=0 / chroma_qp_offset=-2 / threads=12 / sliced_threads=0 / nr=0 / decimate=1 / interlaced=0 / constrained_intra=0 / bframes=6 / b_pyramid=2 / b_adapt=2 / b_bias=0 / direct=3 / weightb=1 / open_gop=0 / weightp=2 / keyint=250 / keyint_min=25 / scenecut=40 / intra_refresh=0 / rc_lookahead=50 / rc=2pass / mbtree=1 / bitrate=12000 / ratetol=2.0 / qcomp=0.70 / qpmin=10 / qpmax=51 / qpstep=4 / cplxblur=20.0 / qblur=0.5 / vbv_maxrate=50000 / vbv_bufsize=50000 / ip_ratio=1.40 / aq=1:0.80 / nal_hrd=none
Language                         : English

Audio
ID                               : 2
Format                           : DTS
Format/Info                      : Digital Theater Systems
Codec ID                         : A_DTS
Duration                         : 1h 42mn
Bit rate mode                    : Constant
Bit rate                         : 1 510 Kbps
Channel(s)                       : 6 channels
Channel positions                : Front: L C R, Side: L R, LFE
Sampling rate                    : 48.0 KHz
Bit depth                        : 24 bits
Stream size                      : 1.08 GiB (11%)
Title                            : DTS-HD MA CORE 1536K
Language                         : English

Text
ID                               : 3
Format                           : UTF-8
Codec ID                         : S_TEXT/UTF8
Codec ID/Info                    : UTF-8 Plain Text
Language                         : Dutch

 
Genre : Komedie
 
Weblink :   http://www.moviemeter.nl/film/61551 
Weblink :   http://www.imdb.com/title/tt1375670
 

***************************************** 

Brought to you by 
Pioen

2Lions Team

meer zien??
Kom dan eens kijken op ons forum 
                                            
http://www.2lions-site.nl


2Lions the site to be for all your Dutch MOVIES and more

******************************************


DON T HIT AND RUN Niet gelijk afhaken als de FILM binnen is blijf seeden. 

Don`t quit after you finished the download, but keep seeding


There are fake torrents from uploaders who use our team name.
Those are not ours, or members from our team.
We 2Lions-Team are not responsible for the fake posts on our name

Wij 2Lions-Team zijn niet verantwoordelijk voor die zieke FAKE posten die op onze naam worden gedaan


 
 
 
 
